<?xml version="1.0" encoding="UTF-8" standalone="no"?>
<svg
   xmlns:dc="http://purl.org/dc/elements/1.1/"
   xmlns:cc="http://creativecommons.org/ns#"
   xmlns:rdf="http://www.w3.org/1999/02/22-rdf-syntax-ns#"
   xmlns:svg="http://www.w3.org/2000/svg"
   xmlns="http://www.w3.org/2000/svg"
   viewBox="0 0 245.84801 251.08267"
   height="251.08267"
   width="245.84801"
   xml:space="preserve"
   id="svg2"
   version="1.1"><metadata
     id="metadata8"><rdf:RDF><cc:Work
         rdf:about=""><dc:format>image/svg+xml</dc:format><dc:type
           rdf:resource="http://purl.org/dc/dcmitype/StillImage" /></cc:Work></rdf:RDF></metadata><defs
     id="defs6"><clipPath
       id="clipPath18"
       clipPathUnits="userSpaceOnUse"><path
         id="path16"
         d="M 0,188.312 H 184.386 V 0 H 0 Z" /></clipPath><clipPath
       id="clipPath30"
       clipPathUnits="userSpaceOnUse"><path
         id="path28"
         d="M 18.594,15.494 H 30.99 c -0.161,0.716 -0.239,1.27 -0.239,1.669 v 0 c 0,1.35 0.316,2.503 0.953,3.457 v 0 c 0.954,1.35 2.623,2.461 5.006,3.337 v 0 c -4.767,2.224 -9.219,6.117 -13.349,11.68 v 0 c -1.351,1.827 -2.941,4.37 -4.767,7.629 v 0 z" /></clipPath><linearGradient
       id="linearGradient48"
       spreadMethod="pad"
       gradientTransform="matrix(-7.2e-6,165.16699,165.16699,7.2e-6,27.652344,12.322266)"
       gradientUnits="userSpaceOnUse"
       y2="0"
       x2="1"
       y1="0"
       x1="0"><stop
         id="stop36"
         offset="0"
         style="stop-opacity:1;stop-color:#fff33b" /><stop
         id="stop38"
         offset="0.13312686"
         style="stop-opacity:1;stop-color:#fdc70c" /><stop
         id="stop40"
         offset="0.280899"
         style="stop-opacity:1;stop-color:#fdc70c" /><stop
         id="stop42"
         offset="0.668539"
         style="stop-opacity:1;stop-color:#f3903f" /><stop
         id="stop44"
         offset="0.88764"
         style="stop-opacity:1;stop-color:#ed683d" /><stop
         id="stop46"
         offset="1"
         style="stop-opacity:1;stop-color:#e93e39" /></linearGradient><clipPath
       id="clipPath58"
       clipPathUnits="userSpaceOnUse"><path
         id="path56"
         d="M 0,188.312 H 184.386 V 0 H 0 Z" /></clipPath><clipPath
       id="clipPath70"
       clipPathUnits="userSpaceOnUse"><path
         id="path68"
         d="m 18.594,98.093 c 1.27,-1.59 2.581,-3.179 3.933,-4.767 v 0 c 3.337,-3.656 6.871,-6.835 10.607,-9.536 v 0 c 5.324,-3.814 10.567,-6.239 15.733,-7.27 v 0 l -0.237,29.44 c -2.384,-0.239 -4.571,-0.358 -6.556,-0.358 v 0 c -6.834,0 -12.794,1.431 -17.878,4.291 v 0 c -1.669,0.953 -3.536,2.384 -5.602,4.291 v 0 z" /></clipPath><linearGradient
       id="linearGradient88"
       spreadMethod="pad"
       gradientTransform="matrix(-7.2e-6,165.16699,165.16699,7.2e-6,33.730469,12.322266)"
       gradientUnits="userSpaceOnUse"
       y2="0"
       x2="1"
       y1="0"
       x1="0"><stop
         id="stop76"
         offset="0"
         style="stop-opacity:1;stop-color:#fff33b" /><stop
         id="stop78"
         offset="0.13312686"
         style="stop-opacity:1;stop-color:#fdc70c" /><stop
         id="stop80"
         offset="0.280899"
         style="stop-opacity:1;stop-color:#fdc70c" /><stop
         id="stop82"
         offset="0.668539"
         style="stop-opacity:1;stop-color:#f3903f" /><stop
         id="stop84"
         offset="0.88764"
         style="stop-opacity:1;stop-color:#ed683d" /><stop
         id="stop86"
         offset="1"
         style="stop-opacity:1;stop-color:#e93e39" /></linearGradient><clipPath
       id="clipPath98"
       clipPathUnits="userSpaceOnUse"><path
         id="path96"
         d="M 0,188.312 H 184.386 V 0 H 0 Z" /></clipPath><clipPath
       id="clipPath110"
       clipPathUnits="userSpaceOnUse"><path
         id="path108"
         d="m 126.937,94.874 c -0.637,-0.318 -1.391,-0.714 -2.264,-1.191 v 0 l 12.634,-20.382 c -1.115,3.416 -2.187,7.608 -3.219,12.575 v 0 c -1.033,4.965 -1.549,9.315 -1.549,13.051 v 0 c -1.749,-1.59 -3.617,-2.941 -5.602,-4.053" /></clipPath><linearGradient
       id="linearGradient128"
       spreadMethod="pad"
       gradientTransform="matrix(-7.2e-6,165.16699,165.16699,7.2e-6,130.98926,12.322266)"
       gradientUnits="userSpaceOnUse"
       y2="0"
       x2="1"
       y1="0"
       x1="0"><stop
         id="stop116"
         offset="0"
         style="stop-opacity:1;stop-color:#fff33b" /><stop
         id="stop118"
         offset="0.13312686"
         style="stop-opacity:1;stop-color:#fdc70c" /><stop
         id="stop120"
         offset="0.280899"
         style="stop-opacity:1;stop-color:#fdc70c" /><stop
         id="stop122"
         offset="0.668539"
         style="stop-opacity:1;stop-color:#f3903f" /><stop
         id="stop124"
         offset="0.88764"
         style="stop-opacity:1;stop-color:#ed683d" /><stop
         id="stop126"
         offset="1"
         style="stop-opacity:1;stop-color:#e93e39" /></linearGradient><clipPath
       id="clipPath138"
       clipPathUnits="userSpaceOnUse"><path
         id="path136"
         d="M 0,188.312 H 184.386 V 0 H 0 Z" /></clipPath><clipPath
       id="clipPath150"
       clipPathUnits="userSpaceOnUse"><path
         id="path148"
         d="m 125.149,173.42 c 6.753,-3.656 12.276,-8.265 16.568,-13.826 v 0 c 5.084,-6.596 7.628,-13.787 7.628,-21.573 v 0 c 0,-5.244 -0.518,-9.893 -1.55,-13.945 v 0 c -0.238,-0.637 0.516,-3.417 2.265,-8.343 v 0 c 2.145,-6.039 4.687,-11.562 7.628,-16.567 v 0 c 3.892,-6.676 8.105,-11.523 12.633,-14.542 v 0 46.842 c -0.16,0 -1.787,1.985 -4.886,5.959 v 0 c -4.133,5.245 -7.669,10.329 -10.608,15.256 v 0 c -4.37,7.31 -7.55,14.223 -9.535,20.739 v 0 z" /></clipPath><linearGradient
       id="linearGradient168"
       spreadMethod="pad"
       gradientTransform="matrix(-7.2e-6,165.16699,165.16699,7.2e-6,147.73535,12.322266)"
       gradientUnits="userSpaceOnUse"
       y2="0"
       x2="1"
       y1="0"
       x1="0"><stop
         id="stop156"
         offset="0"
         style="stop-opacity:1;stop-color:#fff33b" /><stop
         id="stop158"
         offset="0.13312686"
         style="stop-opacity:1;stop-color:#fdc70c" /><stop
         id="stop160"
         offset="0.280899"
         style="stop-opacity:1;stop-color:#fdc70c" /><stop
         id="stop162"
         offset="0.668539"
         style="stop-opacity:1;stop-color:#f3903f" /><stop
         id="stop164"
         offset="0.88764"
         style="stop-opacity:1;stop-color:#ed683d" /><stop
         id="stop166"
         offset="1"
         style="stop-opacity:1;stop-color:#e93e39" /></linearGradient><clipPath
       id="clipPath178"
       clipPathUnits="userSpaceOnUse"><path
         id="path176"
         d="M 0,188.312 H 184.386 V 0 H 0 Z" /></clipPath><clipPath
       id="clipPath190"
       clipPathUnits="userSpaceOnUse"><path
         id="path188"
         d="m 171.305,28.786 0.209,0.177 v 1.669 c 0.145,0.435 0.058,0.721 -0.209,0.891 v 0 z" /></clipPath><linearGradient
       id="linearGradient202"
       spreadMethod="pad"
       gradientTransform="matrix(-7.2e-6,-165.75,-165.75,7.2e-6,171.44434,177.56201)"
       gradientUnits="userSpaceOnUse"
       y2="0"
       x2="1"
       y1="0"
       x1="0"><stop
         id="stop196"
         offset="0"
         style="stop-opacity:1;stop-color:#fdc70c" /><stop
         id="stop198"
         offset="0.239968"
         style="stop-opacity:1;stop-color:#fdc70c" /><stop
         id="stop200"
         offset="1"
         style="stop-opacity:1;stop-color:#006838" /></linearGradient><clipPath
       id="clipPath212"
       clipPathUnits="userSpaceOnUse"><path
         id="path210"
         d="M 0,188.312 H 184.386 V 0 H 0 Z" /></clipPath><clipPath
       id="clipPath224"
       clipPathUnits="userSpaceOnUse"><path
         id="path222"
         d="m 99.404,107.747 -6.198,-4.29 c -1.829,-1.193 -3.336,-2.226 -4.529,-3.1 v 0 c -2.306,-1.748 -3.855,-3.139 -4.648,-4.171 v 0 c 0.316,-0.319 0.555,-0.518 0.715,-0.596 v 0 c 0.554,-0.477 0.913,-0.716 1.073,-0.716 v 0 c 1.191,0.397 2.343,0.597 3.456,0.597 v 0 c 1.985,0 3.892,-0.477 5.721,-1.431 v 0 c 1.827,-0.953 3.177,-2.225 4.053,-3.813 v 0 l 32.42,-58.403 c 5.72,-8.901 9.553,-14.344 11.501,-16.33 v 0 c 1.946,-1.985 4.151,-2.98 6.615,-2.98 v 0 h 2.503 l 19.219,16.272 v 2.737 c -0.172,0.11 -0.403,0.181 -0.745,0.181 v 0 c -0.795,0 -1.868,-0.318 -3.218,-0.953 v 0 c -0.238,-0.08 -0.596,-0.28 -1.072,-0.597 v 0 c -2.146,0 -5.841,2.862 -11.085,8.582 v 0 c -4.767,5.245 -9.178,10.925 -13.231,17.045 v 0 l -26.578,40.643 c -2.465,3.814 -4.491,6.556 -6.079,8.224 v 0 c -2.464,2.7 -4.767,4.053 -6.913,4.053 v 0 c -1.114,0 -2.107,-0.318 -2.98,-0.954" /></clipPath><linearGradient
       id="linearGradient242"
       spreadMethod="pad"
       gradientTransform="matrix(-7.2e-6,165.16699,165.16699,7.2e-6,127.66699,12.322266)"
       gradientUnits="userSpaceOnUse"
       y2="0"
       x2="1"
       y1="0"
       x1="0"><stop
         id="stop230"
         offset="0"
         style="stop-opacity:1;stop-color:#fff33b" /><stop
         id="stop232"
         offset="0.13312686"
         style="stop-opacity:1;stop-color:#fdc70c" /><stop
         id="stop234"
         offset="0.280899"
         style="stop-opacity:1;stop-color:#fdc70c" /><stop
         id="stop236"
         offset="0.668539"
         style="stop-opacity:1;stop-color:#f3903f" /><stop
         id="stop238"
         offset="0.88764"
         style="stop-opacity:1;stop-color:#ed683d" /><stop
         id="stop240"
         offset="1"
         style="stop-opacity:1;stop-color:#e93e39" /></linearGradient><clipPath
       id="clipPath252"
       clipPathUnits="userSpaceOnUse"><path
         id="path250"
         d="m 99.404,107.747 -6.198,-4.29 c -1.829,-1.193 -3.336,-2.226 -4.529,-3.1 v 0 c -2.306,-1.748 -3.855,-3.139 -4.648,-4.171 v 0 c 0.316,-0.319 0.555,-0.518 0.715,-0.596 v 0 c 0.554,-0.477 0.913,-0.716 1.073,-0.716 v 0 c 1.191,0.397 2.343,0.597 3.456,0.597 v 0 c 1.985,0 3.892,-0.477 5.721,-1.431 v 0 c 1.827,-0.953 3.177,-2.225 4.053,-3.813 v 0 l 32.42,-58.403 c 5.72,-8.901 9.553,-14.344 11.501,-16.33 v 0 c 1.946,-1.985 4.151,-2.98 6.615,-2.98 v 0 h 2.503 l 19.219,16.272 v 2.737 c -0.172,0.11 -0.403,0.181 -0.745,0.181 v 0 c -0.795,0 -1.868,-0.318 -3.218,-0.953 v 0 c -0.238,-0.08 -0.596,-0.28 -1.072,-0.597 v 0 c -2.146,0 -5.841,2.862 -11.085,8.582 v 0 c -4.767,5.245 -9.178,10.925 -13.231,17.045 v 0 l -26.578,40.643 c -2.465,3.814 -4.491,6.556 -6.079,8.224 v 0 c -2.464,2.7 -4.767,4.053 -6.913,4.053 v 0 c -1.114,0 -2.107,-0.318 -2.98,-0.954" /></clipPath><linearGradient
       id="linearGradient264"
       spreadMethod="pad"
       gradientTransform="matrix(-7.2e-6,-165.75,-165.75,7.2e-6,127.66699,177.56201)"
       gradientUnits="userSpaceOnUse"
       y2="0"
       x2="1"
       y1="0"
       x1="0"><stop
         id="stop258"
         offset="0"
         style="stop-opacity:1;stop-color:#fdc70c" /><stop
         id="stop260"
         offset="0.239968"
         style="stop-opacity:1;stop-color:#fdc70c" /><stop
         id="stop262"
         offset="1"
         style="stop-opacity:1;stop-color:#006838" /></linearGradient><clipPath
       id="clipPath274"
       clipPathUnits="userSpaceOnUse"><path
         id="path272"
         d="M 0,188.312 H 184.386 V 0 H 0 Z" /></clipPath><clipPath
       id="clipPath286"
       clipPathUnits="userSpaceOnUse"><path
         id="path284"
         d="M 42.313,161.86 C 26.261,152.482 18.237,140.882 18.237,127.056 v 0 c 0,-4.609 2.74,-8.364 8.223,-11.264 v 0 c 5.483,-2.9 12.117,-4.35 19.904,-4.35 v 0 c 2.781,0.159 5.006,0.278 6.676,0.358 v 0 c 4.845,0.397 8.82,0.953 11.918,1.668 v 0 c 12.396,3.099 21.89,7.23 28.487,12.396 v 0 c 7.389,5.799 11.085,12.911 11.085,21.335 v 0 c 0,2.224 -0.757,4.052 -2.266,5.482 v 0 c -1.828,1.747 -4.57,2.623 -8.224,2.623 v 0 c -4.29,0 -9.615,-2.345 -15.97,-7.033 v 0 c -4.133,-3.02 -7.829,-5.482 -11.086,-7.389 v 0 c -3.259,-1.907 -5.047,-3.179 -5.363,-3.814 v 0 c -0.318,-0.637 -0.477,-1.788 -0.477,-3.457 v 0 -1.43 c 0,-0.954 0.06,-2.98 0.179,-6.078 v 0 c 0.119,-3.1 0.179,-4.968 0.179,-5.603 v 0 c 0.396,-0.238 0.954,-0.357 1.668,-0.357 v 0 c 1.032,0 2.343,0.158 3.934,0.477 v 0 l 12.276,5.721 0.954,15.256 c 2.145,2.7 4.589,4.648 7.331,5.84 v 0 c 2.74,1.193 5.422,1.788 8.045,1.788 v 0 c 0.873,0 1.886,-0.655 3.039,-1.967 v 0 c 1.15,-1.31 1.728,-2.642 1.728,-3.992 v 0 c 0,-4.53 -3.497,-9.258 -10.489,-14.184 v 0 c -5.404,-3.735 -12.437,-7.311 -21.097,-10.727 v 0 c -3.098,-1.192 -6.397,-2.086 -9.892,-2.682 v 0 C 55.501,115.077 52.045,114.78 48.63,114.78 v 0 c -8.9,0 -15.614,1.747 -20.144,5.244 v 0 c -3.655,2.86 -5.482,6.436 -5.482,10.727 v 0 c 0,7.31 3.496,13.945 10.489,19.905 v 0 c 5.878,5.005 13.587,9.097 23.122,12.276 v 0 c 8.422,2.78 16.011,4.172 22.765,4.172 v 0 c 5.403,0 10.409,-0.557 15.018,-1.669 v 0 c 7.786,-1.907 14.521,-5.583 20.203,-11.026 v 0 c 5.68,-5.443 8.522,-10.827 8.522,-16.149 v 0 c 0,-1.907 0.039,-3.954 0.119,-6.138 v 0 c 0.079,-2.187 0.197,-4.511 0.358,-6.973 v 0 c 0,-2.702 -0.26,-5.047 -0.775,-7.032 v 0 c -0.518,-1.987 -1.609,-4.253 -3.278,-6.794 v 0 c -0.238,-0.319 -1.31,-1.868 -3.218,-4.649 v 0 c -0.795,-1.113 -1.192,-1.947 -1.192,-2.503 v 0 c 0,-2.384 1.35,-4.529 4.053,-6.435 v 0 c 3.415,1.508 6.198,3.177 8.343,5.005 v 0 c 1.747,1.509 3.853,3.892 6.317,7.152 v 0 c 3.575,4.607 6.097,9.118 7.569,13.528 v 0 c 1.469,4.41 2.205,9.117 2.205,14.123 v 0 c 0,7.072 -2.266,13.627 -6.794,19.667 v 0 c -4.213,5.561 -9.576,9.733 -16.09,12.515 v 0 c -4.133,1.827 -8.463,3.138 -12.992,3.934 v 0 c -4.53,0.792 -9.535,1.191 -15.018,1.191 v 0 c -18.833,0 -35.638,-4.332 -50.417,-12.991" /></clipPath><linearGradient
       id="linearGradient304"
       spreadMethod="pad"
       gradientTransform="matrix(-7.2e-6,165.16701,165.16701,7.2e-6,80.929687,12.322266)"
       gradientUnits="userSpaceOnUse"
       y2="0"
       x2="1"
       y1="0"
       x1="0"><stop
         id="stop292"
         offset="0"
         style="stop-opacity:1;stop-color:#fff33b" /><stop
         id="stop294"
         offset="0.13312686"
         style="stop-opacity:1;stop-color:#fdc70c" /><stop
         id="stop296"
         offset="0.280899"
         style="stop-opacity:1;stop-color:#fdc70c" /><stop
         id="stop298"
         offset="0.668539"
         style="stop-opacity:1;stop-color:#f3903f" /><stop
         id="stop300"
         offset="0.88764"
         style="stop-opacity:1;stop-color:#ed683d" /><stop
         id="stop302"
         offset="1"
         style="stop-opacity:1;stop-color:#e93e39" /></linearGradient><clipPath
       id="clipPath314"
       clipPathUnits="userSpaceOnUse"><path
         id="path312"
         d="M 42.313,161.86 C 26.261,152.482 18.237,140.882 18.237,127.056 v 0 c 0,-4.609 2.74,-8.364 8.223,-11.264 v 0 c 5.483,-2.9 12.117,-4.35 19.904,-4.35 v 0 c 2.781,0.159 5.006,0.278 6.676,0.358 v 0 c 4.845,0.397 8.82,0.953 11.918,1.668 v 0 c 12.396,3.099 21.89,7.23 28.487,12.396 v 0 c 7.389,5.799 11.085,12.911 11.085,21.335 v 0 c 0,2.224 -0.757,4.052 -2.266,5.482 v 0 c -1.828,1.747 -4.57,2.623 -8.224,2.623 v 0 c -4.29,0 -9.615,-2.345 -15.97,-7.033 v 0 c -4.133,-3.02 -7.829,-5.482 -11.086,-7.389 v 0 c -3.259,-1.907 -5.047,-3.179 -5.363,-3.814 v 0 c -0.318,-0.637 -0.477,-1.788 -0.477,-3.457 v 0 -1.43 c 0,-0.954 0.06,-2.98 0.179,-6.078 v 0 c 0.119,-3.1 0.179,-4.968 0.179,-5.603 v 0 c 0.396,-0.238 0.954,-0.357 1.668,-0.357 v 0 c 1.032,0 2.343,0.158 3.934,0.477 v 0 l 12.276,5.721 0.954,15.256 c 2.145,2.7 4.589,4.648 7.331,5.84 v 0 c 2.74,1.193 5.422,1.788 8.045,1.788 v 0 c 0.873,0 1.886,-0.655 3.039,-1.967 v 0 c 1.15,-1.31 1.728,-2.642 1.728,-3.992 v 0 c 0,-4.53 -3.497,-9.258 -10.489,-14.184 v 0 c -5.404,-3.735 -12.437,-7.311 -21.097,-10.727 v 0 c -3.098,-1.192 -6.397,-2.086 -9.892,-2.682 v 0 C 55.501,115.077 52.045,114.78 48.63,114.78 v 0 c -8.9,0 -15.614,1.747 -20.144,5.244 v 0 c -3.655,2.86 -5.482,6.436 -5.482,10.727 v 0 c 0,7.31 3.496,13.945 10.489,19.905 v 0 c 5.878,5.005 13.587,9.097 23.122,12.276 v 0 c 8.422,2.78 16.011,4.172 22.765,4.172 v 0 c 5.403,0 10.409,-0.557 15.018,-1.669 v 0 c 7.786,-1.907 14.521,-5.583 20.203,-11.026 v 0 c 5.68,-5.443 8.522,-10.827 8.522,-16.149 v 0 c 0,-1.907 0.039,-3.954 0.119,-6.138 v 0 c 0.079,-2.187 0.197,-4.511 0.358,-6.973 v 0 c 0,-2.702 -0.26,-5.047 -0.775,-7.032 v 0 c -0.518,-1.987 -1.609,-4.253 -3.278,-6.794 v 0 c -0.238,-0.319 -1.31,-1.868 -3.218,-4.649 v 0 c -0.795,-1.113 -1.192,-1.947 -1.192,-2.503 v 0 c 0,-2.384 1.35,-4.529 4.053,-6.435 v 0 c 3.415,1.508 6.198,3.177 8.343,5.005 v 0 c 1.747,1.509 3.853,3.892 6.317,7.152 v 0 c 3.575,4.607 6.097,9.118 7.569,13.528 v 0 c 1.469,4.41 2.205,9.117 2.205,14.123 v 0 c 0,7.072 -2.266,13.627 -6.794,19.667 v 0 c -4.213,5.561 -9.576,9.733 -16.09,12.515 v 0 c -4.133,1.827 -8.463,3.138 -12.992,3.934 v 0 c -4.53,0.792 -9.535,1.191 -15.018,1.191 v 0 c -18.833,0 -35.638,-4.332 -50.417,-12.991" /></clipPath><linearGradient
       id="linearGradient326"
       spreadMethod="pad"
       gradientTransform="matrix(-7.2e-6,-165.75,-165.75,7.2e-6,80.929687,177.56201)"
       gradientUnits="userSpaceOnUse"
       y2="0"
       x2="1"
       y1="0"
       x1="0"><stop
         id="stop320"
         offset="0"
         style="stop-opacity:1;stop-color:#fdc70c" /><stop
         id="stop322"
         offset="0.239968"
         style="stop-opacity:1;stop-color:#fdc70c" /><stop
         id="stop324"
         offset="1"
         style="stop-opacity:1;stop-color:#006838" /></linearGradient><clipPath
       id="clipPath336"
       clipPathUnits="userSpaceOnUse"><path
         id="path334"
         d="M 0,188.312 H 184.386 V 0 H 0 Z" /></clipPath><clipPath
       id="clipPath348"
       clipPathUnits="userSpaceOnUse"><path
         id="path346"
         d="m 75.804,114.124 c -1.59,-0.756 -3.417,-1.531 -5.482,-2.324 v 0 l -9.178,-2.861 -0.596,-81.525 c 0,-1.193 -0.477,-2.306 -1.43,-3.338 v 0 C 58.561,23.52 57.549,22.864 56.079,22.109 v 0 C 54.607,21.353 52.563,20.977 49.94,20.977 v 0 L 41.001,20.024 38.618,18.355 C 38.299,18.194 38.04,17.957 37.843,17.64 v 0 c -0.2,-0.319 -0.339,-0.676 -0.417,-1.073 v 0 c 0.238,-0.795 0.477,-1.271 0.714,-1.43 v 0 c 9.06,1.589 19.587,2.384 31.586,2.384 v 0 c 10.17,0 19.109,-0.637 26.818,-1.907 v 0 h 1.669 c 0.872,0.158 1.388,0.316 1.548,0.476 v 0 c 0.477,0.636 0.716,1.39 0.716,2.265 v 0 c -2.306,1.908 -4.729,2.861 -7.271,2.861 v 0 c -1.033,0.158 -2.046,0.298 -3.039,0.416 v 0 c -0.995,0.12 -1.889,0.179 -2.682,0.179 v 0 c -0.875,-0.16 -1.71,-0.238 -2.503,-0.238 v 0 c -1.668,0 -2.979,0.516 -3.933,1.55 v 0 c -1.431,1.508 -2.146,4.131 -2.146,7.867 v 0 l 0.12,49.94 c 1.985,0.158 3.695,0.396 5.125,0.714 v 0 c 4.13,0.954 8.502,2.623 13.11,5.007 v 0 c -0.397,0.239 -0.675,0.396 -0.834,0.476 v 0 c -1.51,0.954 -2.583,1.509 -3.218,1.669 v 0 c -1.829,-0.715 -3.298,-1.233 -4.409,-1.549 v 0 c -3.499,-1.114 -6.04,-1.669 -7.629,-1.669 v 0 c -1.51,0 -2.265,0.436 -2.265,1.312 v 0 28.843 c -0.476,-0.319 -1.51,-0.855 -3.099,-1.609" /></clipPath><linearGradient
       id="linearGradient366"
       spreadMethod="pad"
       gradientTransform="matrix(-7.2e-6,165.16699,165.16699,7.2e-6,68.951172,12.322266)"
       gradientUnits="userSpaceOnUse"
       y2="0"
       x2="1"
       y1="0"
       x1="0"><stop
         id="stop354"
         offset="0"
         style="stop-opacity:1;stop-color:#fff33b" /><stop
         id="stop356"
         offset="0.13312686"
         style="stop-opacity:1;stop-color:#fdc70c" /><stop
         id="stop358"
         offset="0.280899"
         style="stop-opacity:1;stop-color:#fdc70c" /><stop
         id="stop360"
         offset="0.668539"
         style="stop-opacity:1;stop-color:#f3903f" /><stop
         id="stop362"
         offset="0.88764"
         style="stop-opacity:1;stop-color:#ed683d" /><stop
         id="stop364"
         offset="1"
         style="stop-opacity:1;stop-color:#e93e39" /></linearGradient><clipPath
       id="clipPath376"
       clipPathUnits="userSpaceOnUse"><path
         id="path374"
         d="m 75.804,114.124 c -1.59,-0.756 -3.417,-1.531 -5.482,-2.324 v 0 l -9.178,-2.861 -0.596,-81.525 c 0,-1.193 -0.477,-2.306 -1.43,-3.338 v 0 C 58.561,23.52 57.549,22.864 56.079,22.109 v 0 C 54.607,21.353 52.563,20.977 49.94,20.977 v 0 L 41.001,20.024 38.618,18.355 C 38.299,18.194 38.04,17.957 37.843,17.64 v 0 c -0.2,-0.319 -0.339,-0.676 -0.417,-1.073 v 0 c 0.238,-0.795 0.477,-1.271 0.714,-1.43 v 0 c 9.06,1.589 19.587,2.384 31.586,2.384 v 0 c 10.17,0 19.109,-0.637 26.818,-1.907 v 0 h 1.669 c 0.872,0.158 1.388,0.316 1.548,0.476 v 0 c 0.477,0.636 0.716,1.39 0.716,2.265 v 0 c -2.306,1.908 -4.729,2.861 -7.271,2.861 v 0 c -1.033,0.158 -2.046,0.298 -3.039,0.416 v 0 c -0.995,0.12 -1.889,0.179 -2.682,0.179 v 0 c -0.875,-0.16 -1.71,-0.238 -2.503,-0.238 v 0 c -1.668,0 -2.979,0.516 -3.933,1.55 v 0 c -1.431,1.508 -2.146,4.131 -2.146,7.867 v 0 l 0.12,49.94 c 1.985,0.158 3.695,0.396 5.125,0.714 v 0 c 4.13,0.954 8.502,2.623 13.11,5.007 v 0 c -0.397,0.239 -0.675,0.396 -0.834,0.476 v 0 c -1.51,0.954 -2.583,1.509 -3.218,1.669 v 0 c -1.829,-0.715 -3.298,-1.233 -4.409,-1.549 v 0 c -3.499,-1.114 -6.04,-1.669 -7.629,-1.669 v 0 c -1.51,0 -2.265,0.436 -2.265,1.312 v 0 28.843 c -0.476,-0.319 -1.51,-0.855 -3.099,-1.609" /></clipPath><linearGradient
       id="linearGradient388"
       spreadMethod="pad"
       gradientTransform="matrix(-7.2e-6,-165.75,-165.75,7.2e-6,68.951172,177.56201)"
       gradientUnits="userSpaceOnUse"
       y2="0"
       x2="1"
       y1="0"
       x1="0"><stop
         id="stop382"
         offset="0"
         style="stop-opacity:1;stop-color:#fdc70c" /><stop
         id="stop384"
         offset="0.239968"
         style="stop-opacity:1;stop-color:#fdc70c" /><stop
         id="stop386"
         offset="1"
         style="stop-opacity:1;stop-color:#006838" /></linearGradient><clipPath
       id="clipPath398"
       clipPathUnits="userSpaceOnUse"><path
         id="path396"
         d="M 0,188.312 H 184.386 V 0 H 0 Z" /></clipPath></defs><g
     transform="matrix(1.3333333,0,0,-1.3333333,0,251.08267)"
     id="g10"><g
       id="g12"><g
         clip-path="url(#clipPath18)"
         id="g14"><g
           transform="translate(36.7104,23.957)"
           id="g20"><path
             id="path22"
             style="fill:#231f20;fill-opacity:1;fill-rule:nonzero;stroke:none"
             d="m 0,0 c -4.768,2.224 -9.219,6.118 -13.349,11.681 -1.352,1.826 -2.941,4.369 -4.768,7.628 V -8.462 h 12.396 c -0.16,0.714 -0.238,1.27 -0.238,1.668 0,1.35 0.316,2.503 0.953,3.457 C -4.052,-1.987 -2.384,-0.875 0,0" /></g></g></g><g
       id="g24"><g
         clip-path="url(#clipPath30)"
         id="g26"><g
           id="g32"><g
             id="g34"><path
               id="path50"
               style="fill:url(#linearGradient48);stroke:none"
               d="M 18.594,15.494 H 30.99 c -0.161,0.716 -0.239,1.27 -0.239,1.669 v 0 c 0,1.35 0.316,2.503 0.953,3.457 v 0 c 0.954,1.35 2.623,2.461 5.006,3.337 v 0 c -4.767,2.224 -9.219,6.117 -13.349,11.68 v 0 c -1.351,1.827 -2.941,4.37 -4.767,7.629 v 0 z" /></g></g></g></g><g
       id="g52"><g
         clip-path="url(#clipPath58)"
         id="g54"><g
           transform="translate(48.6294,105.9595)"
           id="g60"><path
             id="path62"
             style="fill:#231f20;fill-opacity:1;fill-rule:nonzero;stroke:none"
             d="m 0,0 c -2.384,-0.238 -4.57,-0.358 -6.555,-0.358 -6.835,0 -12.795,1.431 -17.879,4.291 -1.669,0.954 -3.536,2.384 -5.602,4.291 V -7.867 c 1.27,-1.59 2.581,-3.178 3.933,-4.767 3.338,-3.656 6.873,-6.835 10.608,-9.535 5.323,-3.814 10.567,-6.239 15.733,-7.271 z" /></g></g></g><g
       id="g64"><g
         clip-path="url(#clipPath70)"
         id="g66"><g
           id="g72"><g
             id="g74"><path
               id="path90"
               style="fill:url(#linearGradient88);stroke:none"
               d="m 18.594,98.093 c 1.27,-1.59 2.581,-3.179 3.933,-4.767 v 0 c 3.337,-3.656 6.871,-6.835 10.607,-9.536 v 0 c 5.324,-3.814 10.567,-6.239 15.733,-7.27 v 0 l -0.237,29.44 c -2.384,-0.239 -4.571,-0.358 -6.556,-0.358 v 0 c -6.834,0 -12.794,1.431 -17.878,4.291 v 0 c -1.669,0.953 -3.536,2.384 -5.602,4.291 v 0 z" /></g></g></g></g><g
       id="g92"><g
         clip-path="url(#clipPath98)"
         id="g94"><g
           transform="translate(126.937,94.8745)"
           id="g100"><path
             id="path102"
             style="fill:#231f20;fill-opacity:1;fill-rule:nonzero;stroke:none"
             d="M 0,0 C -0.637,-0.318 -1.391,-0.715 -2.265,-1.192 L 10.37,-21.573 C 9.256,-18.158 8.183,-13.965 7.151,-8.999 6.118,-4.034 5.602,0.317 5.602,4.053 3.853,2.462 1.985,1.112 0,0" /></g></g></g><g
       id="g104"><g
         clip-path="url(#clipPath110)"
         id="g106"><g
           id="g112"><g
             id="g114"><path
               id="path130"
               style="fill:url(#linearGradient128);stroke:none"
               d="m 126.937,94.874 c -0.637,-0.318 -1.391,-0.714 -2.264,-1.191 v 0 l 12.634,-20.382 c -1.115,3.416 -2.187,7.608 -3.219,12.575 v 0 c -1.033,4.965 -1.549,9.315 -1.549,13.051 v 0 c -1.749,-1.59 -3.617,-2.941 -5.602,-4.053" /></g></g></g></g><g
       id="g132"><g
         clip-path="url(#clipPath138)"
         id="g134"><g
           transform="translate(125.1489,173.4204)"
           id="g140"><path
             id="path142"
             style="fill:#231f20;fill-opacity:1;fill-rule:nonzero;stroke:none"
             d="m 0,0 c 6.753,-3.656 12.277,-8.265 16.567,-13.826 5.085,-6.596 7.629,-13.787 7.629,-21.573 0,-5.245 -0.518,-9.893 -1.55,-13.945 -0.238,-0.637 0.516,-3.418 2.265,-8.344 2.145,-6.039 4.687,-11.561 7.628,-16.567 3.892,-6.675 8.105,-11.522 12.634,-14.541 v 46.841 c -0.16,0 -1.788,1.986 -4.887,5.96 -4.132,5.245 -7.669,10.328 -10.608,15.256 -4.37,7.31 -7.55,14.223 -9.535,20.739 z" /></g></g></g><g
       id="g144"><g
         clip-path="url(#clipPath150)"
         id="g146"><g
           id="g152"><g
             id="g154"><path
               id="path170"
               style="fill:url(#linearGradient168);stroke:none"
               d="m 125.149,173.42 c 6.753,-3.656 12.276,-8.265 16.568,-13.826 v 0 c 5.084,-6.596 7.628,-13.787 7.628,-21.573 v 0 c 0,-5.244 -0.518,-9.893 -1.55,-13.945 v 0 c -0.238,-0.637 0.516,-3.417 2.265,-8.343 v 0 c 2.145,-6.039 4.687,-11.562 7.628,-16.567 v 0 c 3.892,-6.676 8.105,-11.523 12.633,-14.542 v 0 46.842 c -0.16,0 -1.787,1.985 -4.886,5.959 v 0 c -4.133,5.245 -7.669,10.329 -10.608,15.256 v 0 c -4.37,7.31 -7.55,14.223 -9.535,20.739 v 0 z" /></g></g></g></g><g
       id="g172"><g
         clip-path="url(#clipPath178)"
         id="g174"><g
           transform="translate(171.5137,28.9629)"
           id="g180"><path
             id="path182"
             style="fill:#231f20;fill-opacity:1;fill-rule:nonzero;stroke:none"
             d="M 0,0 V 1.669 C 0.145,2.104 0.058,2.39 -0.208,2.56 v -2.736 z" /></g></g></g><g
       id="g184"><g
         clip-path="url(#clipPath190)"
         id="g186"><g
           id="g192"><g
             id="g194"><path
               id="path204"
               style="fill:url(#linearGradient202);stroke:none"
               d="m 171.305,28.786 0.209,0.177 v 1.669 c 0.145,0.435 0.058,0.721 -0.209,0.891 v 0 z" /></g></g></g></g><g
       id="g206"><g
         clip-path="url(#clipPath212)"
         id="g208"><g
           transform="translate(171.3052,31.5229)"
           id="g214"><path
             id="path216"
             style="fill:#231f20;fill-opacity:1;fill-rule:nonzero;stroke:none"
             d="m 0,0 c -0.172,0.11 -0.403,0.181 -0.745,0.181 -0.795,0 -1.868,-0.318 -3.218,-0.953 -0.238,-0.08 -0.596,-0.279 -1.073,-0.596 -2.145,0 -5.84,2.861 -11.084,8.581 -4.768,5.245 -9.178,10.925 -13.231,17.045 L -55.93,64.901 c -2.464,3.814 -4.49,6.556 -6.078,8.224 -2.464,2.701 -4.768,4.053 -6.913,4.053 -1.114,0 -2.107,-0.319 -2.98,-0.954 l -6.198,-4.29 c -1.829,-1.192 -3.337,-2.226 -4.529,-3.1 -2.306,-1.748 -3.855,-3.139 -4.648,-4.171 0.316,-0.319 0.554,-0.518 0.714,-0.596 0.556,-0.477 0.913,-0.715 1.073,-0.715 1.192,0.397 2.343,0.596 3.457,0.596 1.985,0 3.892,-0.477 5.721,-1.43 1.827,-0.954 3.177,-2.226 4.052,-3.814 l 32.42,-58.403 c 5.721,-8.901 9.554,-14.344 11.502,-16.329 1.946,-1.986 4.151,-2.98 6.615,-2.98 h 2.503 L 0,-2.736 Z" /></g></g></g><g
       id="g218"><g
         clip-path="url(#clipPath224)"
         id="g220"><g
           id="g226"><g
             id="g228"><path
               id="path244"
               style="fill:url(#linearGradient242);stroke:none"
               d="m 99.404,107.747 -6.198,-4.29 c -1.829,-1.193 -3.336,-2.226 -4.529,-3.1 v 0 c -2.306,-1.748 -3.855,-3.139 -4.648,-4.171 v 0 c 0.316,-0.319 0.555,-0.518 0.715,-0.596 v 0 c 0.554,-0.477 0.913,-0.716 1.073,-0.716 v 0 c 1.191,0.397 2.343,0.597 3.456,0.597 v 0 c 1.985,0 3.892,-0.477 5.721,-1.431 v 0 c 1.827,-0.953 3.177,-2.225 4.053,-3.813 v 0 l 32.42,-58.403 c 5.72,-8.901 9.553,-14.344 11.501,-16.33 v 0 c 1.946,-1.985 4.151,-2.98 6.615,-2.98 v 0 h 2.503 l 19.219,16.272 v 2.737 c -0.172,0.11 -0.403,0.181 -0.745,0.181 v 0 c -0.795,0 -1.868,-0.318 -3.218,-0.953 v 0 c -0.238,-0.08 -0.596,-0.28 -1.072,-0.597 v 0 c -2.146,0 -5.841,2.862 -11.085,8.582 v 0 c -4.767,5.245 -9.178,10.925 -13.231,17.045 v 0 l -26.578,40.643 c -2.465,3.814 -4.491,6.556 -6.079,8.224 v 0 c -2.464,2.7 -4.767,4.053 -6.913,4.053 v 0 c -1.114,0 -2.107,-0.318 -2.98,-0.954" /></g></g></g></g><g
       id="g246"><g
         clip-path="url(#clipPath252)"
         id="g248"><g
           id="g254"><g
             id="g256"><path
               id="path266"
               style="fill:url(#linearGradient264);stroke:none"
               d="m 99.404,107.747 -6.198,-4.29 c -1.829,-1.193 -3.336,-2.226 -4.529,-3.1 v 0 c -2.306,-1.748 -3.855,-3.139 -4.648,-4.171 v 0 c 0.316,-0.319 0.555,-0.518 0.715,-0.596 v 0 c 0.554,-0.477 0.913,-0.716 1.073,-0.716 v 0 c 1.191,0.397 2.343,0.597 3.456,0.597 v 0 c 1.985,0 3.892,-0.477 5.721,-1.431 v 0 c 1.827,-0.953 3.177,-2.225 4.053,-3.813 v 0 l 32.42,-58.403 c 5.72,-8.901 9.553,-14.344 11.501,-16.33 v 0 c 1.946,-1.985 4.151,-2.98 6.615,-2.98 v 0 h 2.503 l 19.219,16.272 v 2.737 c -0.172,0.11 -0.403,0.181 -0.745,0.181 v 0 c -0.795,0 -1.868,-0.318 -3.218,-0.953 v 0 c -0.238,-0.08 -0.596,-0.28 -1.072,-0.597 v 0 c -2.146,0 -5.841,2.862 -11.085,8.582 v 0 c -4.767,5.245 -9.178,10.925 -13.231,17.045 v 0 l -26.578,40.643 c -2.465,3.814 -4.491,6.556 -6.079,8.224 v 0 c -2.464,2.7 -4.767,4.053 -6.913,4.053 v 0 c -1.114,0 -2.107,-0.318 -2.98,-0.954" /></g></g></g></g><g
       id="g268"><g
         clip-path="url(#clipPath274)"
         id="g270"><g
           transform="translate(42.3125,161.8594)"
           id="g276"><path
             id="path278"
             style="fill:#231f20;fill-opacity:1;fill-rule:nonzero;stroke:none"
             d="m 0,0 c -16.052,-9.377 -24.076,-20.978 -24.076,-34.804 0,-4.609 2.741,-8.363 8.223,-11.263 5.483,-2.901 12.117,-4.35 19.905,-4.35 2.781,0.158 5.006,0.277 6.675,0.357 4.846,0.397 8.82,0.954 11.919,1.669 12.396,3.099 21.89,7.229 28.486,12.396 7.39,5.799 11.085,12.911 11.085,21.334 0,2.224 -0.757,4.053 -2.265,5.483 -1.828,1.747 -4.57,2.622 -8.224,2.622 -4.29,0 -9.615,-2.344 -15.971,-7.032 -4.133,-3.02 -7.828,-5.482 -11.085,-7.39 -3.259,-1.906 -5.047,-3.178 -5.363,-3.814 -0.319,-0.637 -0.477,-1.788 -0.477,-3.456 v -1.43 c 0,-0.954 0.06,-2.98 0.179,-6.079 0.119,-3.099 0.178,-4.967 0.178,-5.602 0.397,-0.238 0.954,-0.357 1.669,-0.357 1.032,0 2.343,0.158 3.934,0.476 l 12.276,5.721 0.953,15.257 c 2.146,2.7 4.589,4.648 7.331,5.84 2.741,1.192 5.422,1.788 8.045,1.788 0.873,0 1.886,-0.656 3.039,-1.967 1.151,-1.311 1.729,-2.643 1.729,-3.993 0,-4.529 -3.498,-9.258 -10.489,-14.183 -5.405,-3.736 -12.437,-7.312 -21.097,-10.727 -3.099,-1.192 -6.397,-2.086 -9.892,-2.682 -3.498,-0.596 -6.955,-0.894 -10.37,-0.894 -8.9,0 -15.614,1.747 -20.143,5.245 -3.656,2.86 -5.483,6.436 -5.483,10.727 0,7.309 3.496,13.944 10.489,19.904 5.879,5.006 13.588,9.098 23.123,12.277 8.421,2.78 16.01,4.171 22.765,4.171 5.402,0 10.409,-0.557 15.017,-1.668 7.787,-1.908 14.521,-5.584 20.203,-11.026 5.68,-5.443 8.523,-10.827 8.523,-16.15 0,-1.907 0.039,-3.953 0.119,-6.138 0.078,-2.186 0.197,-4.511 0.357,-6.972 0,-2.703 -0.259,-5.047 -0.775,-7.033 -0.517,-1.987 -1.609,-4.252 -3.277,-6.794 -0.239,-0.318 -1.311,-1.867 -3.218,-4.648 -0.796,-1.113 -1.192,-1.948 -1.192,-2.503 0,-2.384 1.35,-4.529 4.052,-6.436 3.415,1.508 6.198,3.177 8.343,5.006 1.747,1.508 3.854,3.892 6.318,7.151 3.575,4.608 6.097,9.118 7.568,13.528 1.469,4.41 2.205,9.118 2.205,14.124 0,7.071 -2.265,13.627 -6.794,19.667 C 90.305,0.913 84.941,5.084 78.427,7.866 74.294,9.693 69.964,11.004 65.435,11.8 60.906,12.593 55.9,12.992 50.417,12.992 31.585,12.992 14.779,8.66 0,0" /></g></g></g><g
       id="g280"><g
         clip-path="url(#clipPath286)"
         id="g282"><g
           id="g288"><g
             id="g290"><path
               id="path306"
               style="fill:url(#linearGradient304);stroke:none"
               d="M 42.313,161.86 C 26.261,152.482 18.237,140.882 18.237,127.056 v 0 c 0,-4.609 2.74,-8.364 8.223,-11.264 v 0 c 5.483,-2.9 12.117,-4.35 19.904,-4.35 v 0 c 2.781,0.159 5.006,0.278 6.676,0.358 v 0 c 4.845,0.397 8.82,0.953 11.918,1.668 v 0 c 12.396,3.099 21.89,7.23 28.487,12.396 v 0 c 7.389,5.799 11.085,12.911 11.085,21.335 v 0 c 0,2.224 -0.757,4.052 -2.266,5.482 v 0 c -1.828,1.747 -4.57,2.623 -8.224,2.623 v 0 c -4.29,0 -9.615,-2.345 -15.97,-7.033 v 0 c -4.133,-3.02 -7.829,-5.482 -11.086,-7.389 v 0 c -3.259,-1.907 -5.047,-3.179 -5.363,-3.814 v 0 c -0.318,-0.637 -0.477,-1.788 -0.477,-3.457 v 0 -1.43 c 0,-0.954 0.06,-2.98 0.179,-6.078 v 0 c 0.119,-3.1 0.179,-4.968 0.179,-5.603 v 0 c 0.396,-0.238 0.954,-0.357 1.668,-0.357 v 0 c 1.032,0 2.343,0.158 3.934,0.477 v 0 l 12.276,5.721 0.954,15.256 c 2.145,2.7 4.589,4.648 7.331,5.84 v 0 c 2.74,1.193 5.422,1.788 8.045,1.788 v 0 c 0.873,0 1.886,-0.655 3.039,-1.967 v 0 c 1.15,-1.31 1.728,-2.642 1.728,-3.992 v 0 c 0,-4.53 -3.497,-9.258 -10.489,-14.184 v 0 c -5.404,-3.735 -12.437,-7.311 -21.097,-10.727 v 0 c -3.098,-1.192 -6.397,-2.086 -9.892,-2.682 v 0 C 55.501,115.077 52.045,114.78 48.63,114.78 v 0 c -8.9,0 -15.614,1.747 -20.144,5.244 v 0 c -3.655,2.86 -5.482,6.436 -5.482,10.727 v 0 c 0,7.31 3.496,13.945 10.489,19.905 v 0 c 5.878,5.005 13.587,9.097 23.122,12.276 v 0 c 8.422,2.78 16.011,4.172 22.765,4.172 v 0 c 5.403,0 10.409,-0.557 15.018,-1.669 v 0 c 7.786,-1.907 14.521,-5.583 20.203,-11.026 v 0 c 5.68,-5.443 8.522,-10.827 8.522,-16.149 v 0 c 0,-1.907 0.039,-3.954 0.119,-6.138 v 0 c 0.079,-2.187 0.197,-4.511 0.358,-6.973 v 0 c 0,-2.702 -0.26,-5.047 -0.775,-7.032 v 0 c -0.518,-1.987 -1.609,-4.253 -3.278,-6.794 v 0 c -0.238,-0.319 -1.31,-1.868 -3.218,-4.649 v 0 c -0.795,-1.113 -1.192,-1.947 -1.192,-2.503 v 0 c 0,-2.384 1.35,-4.529 4.053,-6.435 v 0 c 3.415,1.508 6.198,3.177 8.343,5.005 v 0 c 1.747,1.509 3.853,3.892 6.317,7.152 v 0 c 3.575,4.607 6.097,9.118 7.569,13.528 v 0 c 1.469,4.41 2.205,9.117 2.205,14.123 v 0 c 0,7.072 -2.266,13.627 -6.794,19.667 v 0 c -4.213,5.561 -9.576,9.733 -16.09,12.515 v 0 c -4.133,1.827 -8.463,3.138 -12.992,3.934 v 0 c -4.53,0.792 -9.535,1.191 -15.018,1.191 v 0 c -18.833,0 -35.638,-4.332 -50.417,-12.991" /></g></g></g></g><g
       id="g308"><g
         clip-path="url(#clipPath314)"
         id="g310"><g
           id="g316"><g
             id="g318"><path
               id="path328"
               style="fill:url(#linearGradient326);stroke:none"
               d="M 42.313,161.86 C 26.261,152.482 18.237,140.882 18.237,127.056 v 0 c 0,-4.609 2.74,-8.364 8.223,-11.264 v 0 c 5.483,-2.9 12.117,-4.35 19.904,-4.35 v 0 c 2.781,0.159 5.006,0.278 6.676,0.358 v 0 c 4.845,0.397 8.82,0.953 11.918,1.668 v 0 c 12.396,3.099 21.89,7.23 28.487,12.396 v 0 c 7.389,5.799 11.085,12.911 11.085,21.335 v 0 c 0,2.224 -0.757,4.052 -2.266,5.482 v 0 c -1.828,1.747 -4.57,2.623 -8.224,2.623 v 0 c -4.29,0 -9.615,-2.345 -15.97,-7.033 v 0 c -4.133,-3.02 -7.829,-5.482 -11.086,-7.389 v 0 c -3.259,-1.907 -5.047,-3.179 -5.363,-3.814 v 0 c -0.318,-0.637 -0.477,-1.788 -0.477,-3.457 v 0 -1.43 c 0,-0.954 0.06,-2.98 0.179,-6.078 v 0 c 0.119,-3.1 0.179,-4.968 0.179,-5.603 v 0 c 0.396,-0.238 0.954,-0.357 1.668,-0.357 v 0 c 1.032,0 2.343,0.158 3.934,0.477 v 0 l 12.276,5.721 0.954,15.256 c 2.145,2.7 4.589,4.648 7.331,5.84 v 0 c 2.74,1.193 5.422,1.788 8.045,1.788 v 0 c 0.873,0 1.886,-0.655 3.039,-1.967 v 0 c 1.15,-1.31 1.728,-2.642 1.728,-3.992 v 0 c 0,-4.53 -3.497,-9.258 -10.489,-14.184 v 0 c -5.404,-3.735 -12.437,-7.311 -21.097,-10.727 v 0 c -3.098,-1.192 -6.397,-2.086 -9.892,-2.682 v 0 C 55.501,115.077 52.045,114.78 48.63,114.78 v 0 c -8.9,0 -15.614,1.747 -20.144,5.244 v 0 c -3.655,2.86 -5.482,6.436 -5.482,10.727 v 0 c 0,7.31 3.496,13.945 10.489,19.905 v 0 c 5.878,5.005 13.587,9.097 23.122,12.276 v 0 c 8.422,2.78 16.011,4.172 22.765,4.172 v 0 c 5.403,0 10.409,-0.557 15.018,-1.669 v 0 c 7.786,-1.907 14.521,-5.583 20.203,-11.026 v 0 c 5.68,-5.443 8.522,-10.827 8.522,-16.149 v 0 c 0,-1.907 0.039,-3.954 0.119,-6.138 v 0 c 0.079,-2.187 0.197,-4.511 0.358,-6.973 v 0 c 0,-2.702 -0.26,-5.047 -0.775,-7.032 v 0 c -0.518,-1.987 -1.609,-4.253 -3.278,-6.794 v 0 c -0.238,-0.319 -1.31,-1.868 -3.218,-4.649 v 0 c -0.795,-1.113 -1.192,-1.947 -1.192,-2.503 v 0 c 0,-2.384 1.35,-4.529 4.053,-6.435 v 0 c 3.415,1.508 6.198,3.177 8.343,5.005 v 0 c 1.747,1.509 3.853,3.892 6.317,7.152 v 0 c 3.575,4.607 6.097,9.118 7.569,13.528 v 0 c 1.469,4.41 2.205,9.117 2.205,14.123 v 0 c 0,7.072 -2.266,13.627 -6.794,19.667 v 0 c -4.213,5.561 -9.576,9.733 -16.09,12.515 v 0 c -4.133,1.827 -8.463,3.138 -12.992,3.934 v 0 c -4.53,0.792 -9.535,1.191 -15.018,1.191 v 0 c -18.833,0 -35.638,-4.332 -50.417,-12.991" /></g></g></g></g><g
       id="g330"><g
         clip-path="url(#clipPath336)"
         id="g332"><g
           transform="translate(75.8047,114.124)"
           id="g338"><path
             id="path340"
             style="fill:#231f20;fill-opacity:1;fill-rule:nonzero;stroke:none"
             d="m 0,0 c -1.59,-0.756 -3.417,-1.531 -5.483,-2.324 l -9.177,-2.861 -0.596,-81.525 c 0,-1.192 -0.477,-2.306 -1.431,-3.338 -0.557,-0.556 -1.569,-1.212 -3.039,-1.967 -1.471,-0.756 -3.516,-1.132 -6.138,-1.132 l -8.939,-0.953 -2.384,-1.669 c -0.319,-0.16 -0.578,-0.398 -0.775,-0.715 -0.199,-0.319 -0.339,-0.676 -0.417,-1.073 0.238,-0.795 0.477,-1.272 0.715,-1.43 9.059,1.589 19.586,2.384 31.585,2.384 10.17,0 19.11,-0.637 26.818,-1.907 h 1.669 c 0.873,0.158 1.389,0.316 1.549,0.476 0.477,0.636 0.715,1.39 0.715,2.265 -2.305,1.907 -4.728,2.861 -7.271,2.861 -1.033,0.158 -2.046,0.298 -3.039,0.417 -0.994,0.119 -1.888,0.178 -2.681,0.178 -0.876,-0.16 -1.71,-0.238 -2.503,-0.238 -1.669,0 -2.98,0.516 -3.934,1.55 -1.43,1.508 -2.145,4.13 -2.145,7.866 l 0.119,49.941 c 1.985,0.158 3.695,0.396 5.125,0.715 4.131,0.953 8.502,2.622 13.111,5.006 -0.398,0.238 -0.676,0.396 -0.834,0.476 -1.511,0.954 -2.583,1.509 -3.219,1.669 -1.828,-0.715 -3.297,-1.233 -4.409,-1.549 -3.498,-1.114 -6.04,-1.669 -7.629,-1.669 -1.51,0 -2.264,0.436 -2.264,1.311 V 1.609 C 2.622,1.291 1.588,0.754 0,0" /></g></g></g><g
       id="g342"><g
         clip-path="url(#clipPath348)"
         id="g344"><g
           id="g350"><g
             id="g352"><path
               id="path368"
               style="fill:url(#linearGradient366);stroke:none"
               d="m 75.804,114.124 c -1.59,-0.756 -3.417,-1.531 -5.482,-2.324 v 0 l -9.178,-2.861 -0.596,-81.525 c 0,-1.193 -0.477,-2.306 -1.43,-3.338 v 0 C 58.561,23.52 57.549,22.864 56.079,22.109 v 0 C 54.607,21.353 52.563,20.977 49.94,20.977 v 0 L 41.001,20.024 38.618,18.355 C 38.299,18.194 38.04,17.957 37.843,17.64 v 0 c -0.2,-0.319 -0.339,-0.676 -0.417,-1.073 v 0 c 0.238,-0.795 0.477,-1.271 0.714,-1.43 v 0 c 9.06,1.589 19.587,2.384 31.586,2.384 v 0 c 10.17,0 19.109,-0.637 26.818,-1.907 v 0 h 1.669 c 0.872,0.158 1.388,0.316 1.548,0.476 v 0 c 0.477,0.636 0.716,1.39 0.716,2.265 v 0 c -2.306,1.908 -4.729,2.861 -7.271,2.861 v 0 c -1.033,0.158 -2.046,0.298 -3.039,0.416 v 0 c -0.995,0.12 -1.889,0.179 -2.682,0.179 v 0 c -0.875,-0.16 -1.71,-0.238 -2.503,-0.238 v 0 c -1.668,0 -2.979,0.516 -3.933,1.55 v 0 c -1.431,1.508 -2.146,4.131 -2.146,7.867 v 0 l 0.12,49.94 c 1.985,0.158 3.695,0.396 5.125,0.714 v 0 c 4.13,0.954 8.502,2.623 13.11,5.007 v 0 c -0.397,0.239 -0.675,0.396 -0.834,0.476 v 0 c -1.51,0.954 -2.583,1.509 -3.218,1.669 v 0 c -1.829,-0.715 -3.298,-1.233 -4.409,-1.549 v 0 c -3.499,-1.114 -6.04,-1.669 -7.629,-1.669 v 0 c -1.51,0 -2.265,0.436 -2.265,1.312 v 0 28.843 c -0.476,-0.319 -1.51,-0.855 -3.099,-1.609" /></g></g></g></g><g
       id="g370"><g
         clip-path="url(#clipPath376)"
         id="g372"><g
           id="g378"><g
             id="g380"><path
               id="path390"
               style="fill:url(#linearGradient388);stroke:none"
               d="m 75.804,114.124 c -1.59,-0.756 -3.417,-1.531 -5.482,-2.324 v 0 l -9.178,-2.861 -0.596,-81.525 c 0,-1.193 -0.477,-2.306 -1.43,-3.338 v 0 C 58.561,23.52 57.549,22.864 56.079,22.109 v 0 C 54.607,21.353 52.563,20.977 49.94,20.977 v 0 L 41.001,20.024 38.618,18.355 C 38.299,18.194 38.04,17.957 37.843,17.64 v 0 c -0.2,-0.319 -0.339,-0.676 -0.417,-1.073 v 0 c 0.238,-0.795 0.477,-1.271 0.714,-1.43 v 0 c 9.06,1.589 19.587,2.384 31.586,2.384 v 0 c 10.17,0 19.109,-0.637 26.818,-1.907 v 0 h 1.669 c 0.872,0.158 1.388,0.316 1.548,0.476 v 0 c 0.477,0.636 0.716,1.39 0.716,2.265 v 0 c -2.306,1.908 -4.729,2.861 -7.271,2.861 v 0 c -1.033,0.158 -2.046,0.298 -3.039,0.416 v 0 c -0.995,0.12 -1.889,0.179 -2.682,0.179 v 0 c -0.875,-0.16 -1.71,-0.238 -2.503,-0.238 v 0 c -1.668,0 -2.979,0.516 -3.933,1.55 v 0 c -1.431,1.508 -2.146,4.131 -2.146,7.867 v 0 l 0.12,49.94 c 1.985,0.158 3.695,0.396 5.125,0.714 v 0 c 4.13,0.954 8.502,2.623 13.11,5.007 v 0 c -0.397,0.239 -0.675,0.396 -0.834,0.476 v 0 c -1.51,0.954 -2.583,1.509 -3.218,1.669 v 0 c -1.829,-0.715 -3.298,-1.233 -4.409,-1.549 v 0 c -3.499,-1.114 -6.04,-1.669 -7.629,-1.669 v 0 c -1.51,0 -2.265,0.436 -2.265,1.312 v 0 28.843 c -0.476,-0.319 -1.51,-0.855 -3.099,-1.609" /></g></g></g></g><g
       id="g392"><g
         clip-path="url(#clipPath398)"
         id="g394"><g
           transform="translate(156.019,92.4907)"
           id="g400"><path
             id="path402"
             style="fill:#7f3f98;fill-opacity:1;fill-rule:nonzero;stroke:none"
             d="m 0,0 c -5.166,7.39 -8.742,15.733 -10.727,25.03 -1.43,-3.575 -2.741,-6.317 -3.933,-8.224 -1.192,-1.907 -2.782,-3.855 -4.768,-5.84 -0.398,-0.399 0.119,-5.286 1.55,-14.661 1.43,-9.376 3.456,-17.878 6.078,-25.506 5.085,-7.947 9.059,-13.707 11.919,-17.283 3.735,-4.689 6.833,-7.47 9.297,-8.343 l 4.887,-0.834 v 40.763 C 9.375,-11.641 4.607,-6.674 0,0" /></g><g
           transform="translate(164.0049,148.6294)"
           id="g404"><path
             id="path406"
             style="fill:#7f3f98;fill-opacity:1;fill-rule:nonzero;stroke:none"
             d="M 0,0 C 2.065,-2.146 4.171,-4.291 6.317,-6.437 V 24.791 H -11.681 C -8.423,15.018 -4.529,6.752 0,0" /></g><g
           transform="translate(18.5938,149.106)"
           id="g408"><path
             id="path410"
             style="fill:#7f3f98;fill-opacity:1;fill-rule:nonzero;stroke:none"
             d="m 0,0 c 3.814,5.483 9.018,10.329 15.614,14.541 4.926,3.099 10.09,5.641 15.494,7.628 3.973,1.431 6.356,2.145 7.152,2.145 H 0 Z" /></g><g
           transform="translate(42.1934,26.1025)"
           id="g412"><path
             id="path414"
             style="fill:#7f3f98;fill-opacity:1;fill-rule:nonzero;stroke:none"
             d="m 0,0 c 1.508,0 3.218,0.197 5.125,0.596 0.316,0 0.754,0.119 1.311,0.358 l 0.238,44.457 c -4.927,0 -9.972,1.669 -15.136,5.006 -3.736,2.384 -7.391,5.522 -10.966,9.416 -1.43,1.668 -2.822,3.376 -4.172,5.125 V 25.745 c 3.258,-5.086 5.88,-8.939 7.867,-11.561 C -9.615,6.157 -4.371,1.43 0,0" /></g><g
           transform="translate(49.7021,171.2754)"
           id="g416"><path
             id="path418"
             style="fill:#231f20;fill-opacity:1;fill-rule:nonzero;stroke:none"
             d="m 0,0 c -5.404,-1.987 -10.569,-4.529 -15.495,-7.628 -6.596,-4.213 -11.799,-9.059 -15.613,-14.541 V 2.145 H 7.151 C 6.356,2.145 3.972,1.43 0,0 m 71.037,-1.55 c 6.514,-2.782 11.878,-6.953 16.09,-12.514 4.53,-6.04 6.794,-12.596 6.794,-19.667 0,-5.006 -0.735,-9.714 -2.205,-14.124 -1.471,-4.41 -3.992,-8.92 -7.568,-13.528 -2.464,-3.259 -4.57,-5.643 -6.317,-7.151 -2.145,-1.829 -4.928,-3.498 -8.344,-5.006 -2.702,1.907 -4.052,4.052 -4.052,6.436 0,0.555 0.397,1.39 1.192,2.503 1.907,2.781 2.979,4.33 3.218,4.648 1.669,2.542 2.76,4.807 3.278,6.794 0.516,1.986 0.774,4.33 0.774,7.033 -0.16,2.461 -0.279,4.786 -0.357,6.972 -0.08,2.185 -0.119,4.231 -0.119,6.138 0,5.323 -2.842,10.707 -8.523,16.15 -5.681,5.442 -12.416,9.118 -20.202,11.026 -4.609,1.111 -9.615,1.668 -15.018,1.668 -6.755,0 -14.344,-1.391 -22.765,-4.171 -9.535,-3.179 -17.244,-7.271 -23.123,-12.277 -6.993,-5.96 -10.488,-12.595 -10.488,-19.904 0,-4.291 1.826,-7.867 5.482,-10.727 4.529,-3.498 11.243,-5.245 20.143,-5.245 3.416,0 6.872,0.298 10.37,0.894 3.495,0.596 6.793,1.49 9.892,2.682 8.66,3.415 15.692,6.991 21.097,10.727 6.991,4.925 10.489,9.654 10.489,14.183 0,1.35 -0.578,2.682 -1.729,3.993 -1.152,1.311 -2.166,1.967 -3.039,1.967 -2.622,0 -5.304,-0.596 -8.045,-1.788 -2.741,-1.192 -5.185,-3.14 -7.33,-5.84 l -0.954,-15.257 -12.276,-5.721 c -1.591,-0.318 -2.902,-0.476 -3.934,-0.476 -0.715,0 -1.272,0.119 -1.668,0.357 0,0.635 -0.06,2.503 -0.179,5.602 -0.119,3.099 -0.179,5.125 -0.179,6.079 v 1.43 c 0,1.668 0.159,2.819 0.477,3.456 0.316,0.636 2.104,1.908 5.363,3.814 3.258,1.908 6.952,4.37 11.085,7.39 6.356,4.688 11.681,7.032 15.971,7.032 3.654,0 6.396,-0.875 8.225,-2.622 1.508,-1.43 2.264,-3.259 2.264,-5.483 0,-8.423 -3.695,-15.535 -11.084,-21.334 -6.597,-5.167 -16.091,-9.297 -28.487,-12.396 -3.099,-0.715 -7.073,-1.272 -11.919,-1.669 -1.669,-0.08 -3.894,-0.199 -6.674,-0.357 -7.788,0 -14.422,1.449 -19.905,4.35 -5.483,2.9 -8.224,6.654 -8.224,11.263 0,13.826 8.025,25.427 24.076,34.804 14.78,8.66 31.585,12.992 50.417,12.992 5.483,0 10.489,-0.399 15.018,-1.192 4.53,-0.796 8.859,-2.107 12.992,-3.934 m 34.088,-17.044 c 2.939,-4.927 6.476,-10.011 10.608,-15.256 3.099,-3.974 4.726,-5.96 4.887,-5.96 v -46.841 c -4.53,3.019 -8.742,7.866 -12.634,14.541 -2.941,5.006 -5.483,10.528 -7.629,16.568 -1.748,4.925 -2.503,7.706 -2.264,8.343 1.032,4.052 1.55,8.7 1.55,13.945 0,7.786 -2.544,14.977 -7.629,21.573 C 87.724,-6.12 82.2,-1.511 75.447,2.145 H 95.59 c 1.985,-6.516 5.164,-13.429 9.535,-20.739 m 15.495,-10.489 c -2.146,2.146 -4.252,4.291 -6.317,6.437 -4.53,6.752 -8.424,15.018 -11.681,24.791 h 17.998 z m 0,-105.363 -4.887,0.834 c -2.464,0.874 -5.563,3.654 -9.297,8.343 -2.86,3.576 -6.834,9.336 -11.919,17.283 -2.622,7.628 -4.648,16.13 -6.079,25.507 -1.43,9.375 -1.947,14.261 -1.549,14.66 1.986,1.985 3.576,3.933 4.768,5.84 1.192,1.907 2.503,4.649 3.933,8.224 1.985,-9.296 5.561,-17.64 10.727,-25.03 4.607,-6.674 9.375,-11.641 14.303,-14.898 z m -36.234,49.047 c 1.032,-4.967 2.105,-9.16 3.218,-12.575 L 74.97,-77.593 c 0.874,0.477 1.628,0.874 2.265,1.192 1.985,1.112 3.853,2.463 5.602,4.053 0,-3.736 0.516,-8.087 1.549,-13.051 m -115.494,5.184 c 1.35,-1.748 2.741,-3.456 4.171,-5.125 3.576,-3.894 7.23,-7.032 10.966,-9.416 5.164,-3.337 10.209,-5.006 15.137,-5.006 l -0.239,-44.457 c -0.556,-0.239 -0.994,-0.358 -1.311,-0.358 -1.907,-0.399 -3.616,-0.596 -5.125,-0.596 -4.371,1.43 -9.615,6.157 -15.733,14.184 -1.987,2.622 -4.609,6.475 -7.866,11.561 z m 14.541,-7.27 c -3.736,2.7 -7.271,5.879 -10.608,9.535 -1.352,1.589 -2.663,3.177 -3.933,4.767 v 16.091 c 2.065,-1.907 3.933,-3.337 5.602,-4.291 5.084,-2.86 11.043,-4.291 17.878,-4.291 1.985,0 4.171,0.12 6.555,0.358 l 0.239,-29.44 c -5.166,1.032 -10.411,3.457 -15.733,7.271 m 48.033,1.788 c 1.589,0 4.131,0.554 7.628,1.668 1.112,0.317 2.581,0.835 4.41,1.55 0.635,-0.161 1.708,-0.715 3.218,-1.669 0.158,-0.08 0.436,-0.238 0.835,-0.477 -4.61,-2.383 -8.981,-4.052 -13.111,-5.006 -1.43,-0.318 -3.14,-0.557 -5.125,-0.715 l -0.12,-49.94 c 0,-3.736 0.716,-6.358 2.146,-7.867 0.953,-1.034 2.264,-1.549 3.933,-1.549 0.793,0 1.628,0.078 2.503,0.238 0.793,0 1.687,-0.059 2.682,-0.179 0.993,-0.119 2.006,-0.258 3.039,-0.417 2.542,0 4.965,-0.953 7.271,-2.86 0,-0.875 -0.239,-1.63 -0.715,-2.265 -0.161,-0.16 -0.677,-0.318 -1.55,-0.477 h -1.669 c -7.708,1.27 -16.647,1.908 -26.817,1.908 -11.999,0 -22.527,-0.796 -31.586,-2.384 -0.238,0.158 -0.476,0.635 -0.714,1.43 0.078,0.396 0.217,0.754 0.417,1.073 0.197,0.316 0.456,0.554 0.775,0.715 l 2.383,1.669 8.939,0.953 c 2.622,0 4.667,0.376 6.138,1.132 1.47,0.754 2.483,1.41 3.04,1.967 0.954,1.032 1.43,2.145 1.43,3.337 l 0.596,81.526 9.178,2.86 c 2.065,0.793 3.892,1.568 5.483,2.325 1.588,0.754 2.622,1.29 3.098,1.609 v -28.844 c 0,-0.876 0.755,-1.311 2.265,-1.311 m -50.179,-70.084 h -12.395 v 27.771 c 1.826,-3.259 3.415,-5.801 4.767,-7.628 4.131,-5.563 8.582,-9.457 13.349,-11.68 -2.383,-0.876 -4.052,-1.988 -5.006,-3.338 -0.637,-0.953 -0.953,-2.106 -0.953,-3.456 0,-0.399 0.078,-0.954 0.238,-1.669 m 121.097,-2.98 h -2.503 c -2.464,0 -4.669,0.995 -6.615,2.98 -1.948,1.986 -5.781,7.429 -11.502,16.329 l -32.42,58.403 c -0.875,1.589 -2.225,2.861 -4.052,3.814 -1.829,0.954 -3.736,1.43 -5.721,1.43 -1.114,0 -2.265,-0.199 -3.457,-0.596 -0.16,0 -0.517,0.239 -1.072,0.715 -0.161,0.079 -0.399,0.278 -0.715,0.597 0.793,1.031 2.342,2.422 4.648,4.171 1.192,0.874 2.7,1.907 4.529,3.099 l 6.198,4.291 c 0.873,0.635 1.866,0.953 2.98,0.953 2.145,0 4.449,-1.352 6.913,-4.052 1.588,-1.669 3.614,-4.41 6.078,-8.224 l 26.579,-40.644 c 4.053,-6.119 8.463,-11.799 13.231,-17.044 5.244,-5.721 8.939,-8.582 11.084,-8.582 0.477,0.317 0.835,0.517 1.073,0.597 1.35,0.634 2.423,0.953 3.218,0.953 0.342,0 0.573,-0.072 0.745,-0.181 0.267,-0.17 0.354,-0.456 0.209,-0.892 v -1.668 l -0.209,-0.177 z M 133.135,17.044 H -48.391 c -0.873,-0.08 -1.311,-0.518 -1.311,-1.311 v -185.459 c 0.08,-1.032 0.518,-1.549 1.311,-1.549 h 181.526 c 1.007,0.078 1.516,0.578 1.54,1.489 h 0.009 v 0.06 185.273 0.186 c -0.08,0.873 -0.596,1.311 -1.549,1.311" /></g></g></g></g></svg>